G04 #@! TF.GenerationSoftware,KiCad,Pcbnew,(5.1.2)-1*
G04 #@! TF.CreationDate,2019-11-10T23:35:37+09:00*
G04 #@! TF.ProjectId,pcb2,70636232-2e6b-4696-9361-645f70636258,rev?*
G04 #@! TF.SameCoordinates,Original*
G04 #@! TF.FileFunction,Profile,NP*
%FSLAX46Y46*%
G04 Gerber Fmt 4.6, Leading zero omitted, Abs format (unit mm)*
G04 Created by KiCad (PCBNEW (5.1.2)-1) date 2019-11-10 23:35:37*
%MOMM*%
%LPD*%
G04 APERTURE LIST*
%ADD10C,0.100000*%
G04 APERTURE END LIST*
D10*
X237236000Y-16510000D02*
G75*
G02X236982002Y-16404790I1J359209D01*
G01*
X236982002Y-16404790D02*
X224282000Y-3048000D01*
X275336000Y-16510000D02*
X237236000Y-16510000D01*
X189992000Y-2794000D02*
X189992000Y67310000D01*
X224282000Y-3048000D02*
X190246000Y-3048000D01*
X332486000Y88392000D02*
X332486000Y88138000D01*
X332232000Y88646000D02*
G75*
G02X332486000Y88392000I0J-254000D01*
G01*
X190246000Y88646000D02*
X332232000Y88646000D01*
X189992000Y88392000D02*
G75*
G02X190246000Y88646000I254000J0D01*
G01*
X189992000Y85090000D02*
X189992000Y88392000D01*
X189992000Y80772000D02*
X189992000Y85090000D01*
X194818000Y80772000D02*
X189992000Y80772000D01*
X194818000Y68326000D02*
X194818000Y80772000D01*
X189992000Y68326000D02*
X194818000Y68326000D01*
X189992000Y67310000D02*
X189992000Y68326000D01*
X190246000Y-3048000D02*
G75*
G02X189992000Y-2794000I0J254000D01*
G01*
X299466000Y-20574000D02*
X275336000Y-16510000D01*
X311658000Y-26162000D02*
X299466000Y-20574000D01*
X322072000Y-45212000D02*
X311658000Y-26162000D01*
X322326000Y-45317209D02*
G75*
G02X322072001Y-45211999I0J359209D01*
G01*
X350520000Y-29210000D02*
X322326000Y-45317209D01*
X350519999Y-28702001D02*
G75*
G02X350519999Y-29209999I-253999J-253999D01*
G01*
X340360000Y-11430000D02*
X350520000Y-28702000D01*
X337566000Y-8890000D02*
X340360000Y-11430000D01*
X332486000Y-5842000D02*
X337566000Y-8890000D01*
X332486000Y88138000D02*
X332486000Y-5842000D01*
M02*
