G04 #@! TF.GenerationSoftware,KiCad,Pcbnew,(5.1.2)-1*
G04 #@! TF.CreationDate,2019-11-10T23:35:37+09:00*
G04 #@! TF.ProjectId,pcb2,70636232-2e6b-4696-9361-645f70636258,rev?*
G04 #@! TF.SameCoordinates,Original*
G04 #@! TF.FileFunction,Soldermask,Top*
G04 #@! TF.FilePolarity,Negative*
%FSLAX46Y46*%
G04 Gerber Fmt 4.6, Leading zero omitted, Abs format (unit mm)*
G04 Created by KiCad (PCBNEW (5.1.2)-1) date 2019-11-10 23:35:37*
%MOMM*%
%LPD*%
G04 APERTURE LIST*
%ADD10C,5.000000*%
%ADD11R,0.900000X0.800000*%
%ADD12R,0.800000X0.900000*%
%ADD13R,2.550000X2.500000*%
%ADD14C,1.750000*%
%ADD15C,3.987800*%
%ADD16O,1.600000X1.600000*%
%ADD17C,1.600000*%
%ADD18C,2.000000*%
%ADD19C,0.100000*%
%ADD20C,1.900000*%
%ADD21C,4.100000*%
%ADD22C,3.000000*%
%ADD23C,2.500000*%
%ADD24R,2.500000X2.550000*%
%ADD25R,1.600000X1.600000*%
%ADD26C,1.524000*%
%ADD27R,1.524000X1.524000*%
%ADD28O,1.400000X1.400000*%
%ADD29C,1.400000*%
%ADD30O,2.500000X1.700000*%
%ADD31C,1.200000*%
%ADD32R,1.525000X0.650000*%
%ADD33R,0.650000X1.525000*%
G04 APERTURE END LIST*
D10*
X322834000Y84074000D03*
X302768000Y-6096000D03*
X234696000Y-4064000D03*
D11*
X271850000Y1270000D03*
X274250000Y2220000D03*
X274250000Y320000D03*
D12*
X323850000Y27870000D03*
X324800000Y25470000D03*
X322900000Y25470000D03*
D11*
X303600000Y20320000D03*
X306000000Y21270000D03*
X306000000Y19370000D03*
X242500000Y1270000D03*
X240100000Y320000D03*
X240100000Y2220000D03*
D12*
X323850000Y57220000D03*
X322900000Y59620000D03*
X324800000Y59620000D03*
D11*
X274250000Y22860000D03*
X271850000Y21910000D03*
X271850000Y23810000D03*
X227400000Y16510000D03*
X229800000Y17460000D03*
X229800000Y15560000D03*
X303600000Y58420000D03*
X306000000Y59370000D03*
X306000000Y57470000D03*
X303600000Y39370000D03*
X306000000Y40320000D03*
X306000000Y38420000D03*
X198050000Y16510000D03*
X195650000Y15560000D03*
X195650000Y17460000D03*
X274250000Y60960000D03*
X271850000Y60010000D03*
X271850000Y61910000D03*
X274250000Y41910000D03*
X271850000Y40960000D03*
X271850000Y42860000D03*
D12*
X320675000Y-3245000D03*
X321625000Y-5645000D03*
X319725000Y-5645000D03*
D11*
X265570000Y58420000D03*
X267970000Y59370000D03*
X267970000Y57470000D03*
X265500000Y39370000D03*
X267900000Y40320000D03*
X267900000Y38420000D03*
D12*
X323850000Y19120000D03*
X322900000Y21520000D03*
X324800000Y21520000D03*
D11*
X236220000Y58420000D03*
X233820000Y57470000D03*
X233820000Y59370000D03*
X236150000Y39370000D03*
X233750000Y38420000D03*
X233750000Y40320000D03*
X316300000Y0D03*
X318700000Y950000D03*
X318700000Y-950000D03*
X265500000Y20320000D03*
X267900000Y21270000D03*
X267900000Y19370000D03*
X227400000Y35560000D03*
X229800000Y36510000D03*
X229800000Y34610000D03*
X227400000Y54610000D03*
X229800000Y55560000D03*
X229800000Y53660000D03*
X284156804Y3301055D03*
X281756804Y2351055D03*
X281756804Y4251055D03*
X236150000Y20320000D03*
X233750000Y19370000D03*
X233750000Y21270000D03*
X198050000Y35560000D03*
X195650000Y34610000D03*
X195650000Y36510000D03*
X198050000Y54610000D03*
X195650000Y53660000D03*
X195650000Y55560000D03*
D13*
X209015000Y5080000D03*
X196115000Y7620000D03*
D14*
X208280000Y10160000D03*
X198120000Y10160000D03*
D15*
X203200000Y10160000D03*
D13*
X304265000Y8890000D03*
X291365000Y11430000D03*
D14*
X303530000Y13970000D03*
X293370000Y13970000D03*
D15*
X298450000Y13970000D03*
D13*
X285215000Y30480000D03*
X272315000Y33020000D03*
D14*
X284480000Y35560000D03*
X274320000Y35560000D03*
D15*
X279400000Y35560000D03*
D16*
X226060000Y38100000D03*
D17*
X218440000Y38100000D03*
D13*
X209015000Y24130000D03*
X196115000Y26670000D03*
D14*
X208280000Y29210000D03*
X198120000Y29210000D03*
D15*
X203200000Y29210000D03*
D13*
X253465000Y-10160000D03*
X240565000Y-7620000D03*
D14*
X252730000Y-5080000D03*
X242570000Y-5080000D03*
D15*
X247650000Y-5080000D03*
D13*
X247115000Y8890000D03*
X234215000Y11430000D03*
D14*
X246380000Y13970000D03*
X236220000Y13970000D03*
D15*
X241300000Y13970000D03*
D18*
X338481869Y-28819665D03*
D19*
G36*
X338977798Y-27378640D02*
G01*
X339977798Y-29110690D01*
X337985940Y-30260690D01*
X336985940Y-28528640D01*
X338977798Y-27378640D01*
X338977798Y-27378640D01*
G37*
D20*
X326586115Y-29775615D03*
X335384933Y-24695615D03*
D21*
X330985524Y-27235615D03*
D22*
X335725229Y-30365024D03*
X335555081Y-27530320D03*
X331325819Y-32905024D03*
X328955967Y-31340320D03*
D18*
X326213346Y-32969961D03*
D19*
G36*
X326709275Y-31528936D02*
G01*
X327709275Y-33260986D01*
X325717417Y-34410986D01*
X324717417Y-32678936D01*
X326709275Y-31528936D01*
X326709275Y-31528936D01*
G37*
D23*
X321732733Y-11437916D03*
D19*
G36*
X321870734Y-13218107D02*
G01*
X319955623Y-11611138D01*
X321594732Y-9657725D01*
X323509843Y-11264694D01*
X321870734Y-13218107D01*
X321870734Y-13218107D01*
G37*
D23*
X311495020Y-19687208D03*
D19*
G36*
X311633021Y-21467399D02*
G01*
X309717910Y-19860430D01*
X311357019Y-17907017D01*
X313272130Y-19513986D01*
X311633021Y-21467399D01*
X311633021Y-21467399D01*
G37*
D14*
X317368778Y-8735597D03*
X310838056Y-16518609D03*
D15*
X314103417Y-12627103D03*
D13*
X304265000Y27940000D03*
X291365000Y30480000D03*
D14*
X303530000Y33020000D03*
X293370000Y33020000D03*
D15*
X298450000Y33020000D03*
D24*
X312420000Y27205000D03*
X314960000Y40105000D03*
D14*
X317500000Y27940000D03*
X317500000Y38100000D03*
D15*
X317500000Y33020000D03*
D13*
X228065000Y43180000D03*
X215165000Y45720000D03*
D14*
X227330000Y48260000D03*
X217170000Y48260000D03*
D15*
X222250000Y48260000D03*
D16*
X307975000Y77470000D03*
X274955000Y69850000D03*
X305435000Y77470000D03*
X277495000Y69850000D03*
X302895000Y77470000D03*
X280035000Y69850000D03*
X300355000Y77470000D03*
X282575000Y69850000D03*
X297815000Y77470000D03*
X285115000Y69850000D03*
X295275000Y77470000D03*
X287655000Y69850000D03*
X292735000Y77470000D03*
X290195000Y69850000D03*
X290195000Y77470000D03*
X292735000Y69850000D03*
X287655000Y77470000D03*
X295275000Y69850000D03*
X285115000Y77470000D03*
X297815000Y69850000D03*
X282575000Y77470000D03*
X300355000Y69850000D03*
X280035000Y77470000D03*
X302895000Y69850000D03*
X277495000Y77470000D03*
X305435000Y69850000D03*
X274955000Y77470000D03*
D25*
X307975000Y69850000D03*
D16*
X265430000Y77470000D03*
X232410000Y69850000D03*
X262890000Y77470000D03*
X234950000Y69850000D03*
X260350000Y77470000D03*
X237490000Y69850000D03*
X257810000Y77470000D03*
X240030000Y69850000D03*
X255270000Y77470000D03*
X242570000Y69850000D03*
X252730000Y77470000D03*
X245110000Y69850000D03*
X250190000Y77470000D03*
X247650000Y69850000D03*
X247650000Y77470000D03*
X250190000Y69850000D03*
X245110000Y77470000D03*
X252730000Y69850000D03*
X242570000Y77470000D03*
X255270000Y69850000D03*
X240030000Y77470000D03*
X257810000Y69850000D03*
X237490000Y77470000D03*
X260350000Y69850000D03*
X234950000Y77470000D03*
X262890000Y69850000D03*
X232410000Y77470000D03*
D25*
X265430000Y69850000D03*
D26*
X224790000Y81915000D03*
X222250000Y81915000D03*
X219710000Y81915000D03*
X217170000Y81915000D03*
X214630000Y81915000D03*
X212090000Y81915000D03*
X209550000Y81915000D03*
X207010000Y81915000D03*
X204470000Y81915000D03*
X201930000Y81915000D03*
X199390000Y81915000D03*
X196850000Y81915000D03*
X224790000Y66675000D03*
X222250000Y66675000D03*
X219710000Y66675000D03*
X217170000Y66675000D03*
X214630000Y66675000D03*
X212090000Y66675000D03*
X209550000Y66675000D03*
X207010000Y66675000D03*
X204470000Y66675000D03*
X201930000Y66675000D03*
X199390000Y66675000D03*
D27*
X196850000Y66675000D03*
D13*
X272515000Y-10160000D03*
X259615000Y-7620000D03*
D14*
X271780000Y-5080000D03*
X261620000Y-5080000D03*
D15*
X266700000Y-5080000D03*
D24*
X312427704Y46255000D03*
X314967704Y59155000D03*
D14*
X317507704Y46990000D03*
X317507704Y57150000D03*
D15*
X317507704Y52070000D03*
D13*
X285215000Y11430000D03*
X272315000Y13970000D03*
D14*
X284480000Y16510000D03*
X274320000Y16510000D03*
D15*
X279400000Y16510000D03*
D13*
X228065000Y5080000D03*
X215165000Y7620000D03*
D14*
X227330000Y10160000D03*
X217170000Y10160000D03*
D15*
X222250000Y10160000D03*
D13*
X304265000Y46990000D03*
X291365000Y49530000D03*
D14*
X303530000Y52070000D03*
X293370000Y52070000D03*
D15*
X298450000Y52070000D03*
D13*
X285215000Y49530000D03*
X272315000Y52070000D03*
D14*
X284480000Y54610000D03*
X274320000Y54610000D03*
D15*
X279400000Y54610000D03*
D13*
X266165000Y46990000D03*
X253265000Y49530000D03*
D14*
X265430000Y52070000D03*
X255270000Y52070000D03*
D15*
X260350000Y52070000D03*
D13*
X266165000Y27940000D03*
X253265000Y30480000D03*
D14*
X265430000Y33020000D03*
X255270000Y33020000D03*
D15*
X260350000Y33020000D03*
D24*
X312420000Y8155000D03*
X314960000Y21055000D03*
D14*
X317500000Y8890000D03*
X317500000Y19050000D03*
D15*
X317500000Y13970000D03*
D13*
X247115000Y46990000D03*
X234215000Y49530000D03*
D14*
X246380000Y52070000D03*
X236220000Y52070000D03*
D15*
X241300000Y52070000D03*
D13*
X247115000Y27940000D03*
X234215000Y30480000D03*
D14*
X246380000Y33020000D03*
X236220000Y33020000D03*
D15*
X241300000Y33020000D03*
D13*
X266165000Y8890000D03*
X253265000Y11430000D03*
D14*
X265430000Y13970000D03*
X255270000Y13970000D03*
D15*
X260350000Y13970000D03*
D13*
X228065000Y24130000D03*
X215165000Y26670000D03*
D14*
X227330000Y29210000D03*
X217170000Y29210000D03*
D15*
X222250000Y29210000D03*
D23*
X292902625Y-13865704D03*
D19*
G36*
X291429935Y-14875312D02*
G01*
X291864055Y-12413293D01*
X294375315Y-12856096D01*
X293941195Y-15318115D01*
X291429935Y-14875312D01*
X291429935Y-14875312D01*
G37*
D23*
X280639672Y-9124230D03*
D19*
G36*
X279166982Y-10133838D02*
G01*
X279601102Y-7671819D01*
X282112362Y-8114622D01*
X281678242Y-10576641D01*
X279166982Y-10133838D01*
X279166982Y-10133838D01*
G37*
D14*
X293060924Y-8735249D03*
X283055278Y-6970983D03*
D15*
X288058101Y-7853116D03*
D18*
X230990000Y81915000D03*
X237490000Y81915000D03*
D13*
X209015000Y43180000D03*
X196115000Y45720000D03*
D14*
X208280000Y48260000D03*
X198120000Y48260000D03*
D15*
X203200000Y48260000D03*
D28*
X270510000Y74930000D03*
D29*
X270510000Y69850000D03*
D16*
X251460000Y3810000D03*
D17*
X243840000Y3810000D03*
D16*
X326390000Y48260000D03*
D17*
X326390000Y55880000D03*
D16*
X283210000Y25400000D03*
D17*
X275590000Y25400000D03*
D16*
X207010000Y19050000D03*
D17*
X199390000Y19050000D03*
D16*
X283210000Y63500000D03*
D17*
X275590000Y63500000D03*
D16*
X283210000Y44450000D03*
D17*
X275590000Y44450000D03*
D16*
X326390000Y10160000D03*
D17*
X326390000Y17780000D03*
D16*
X245110000Y60960000D03*
D17*
X237490000Y60960000D03*
D16*
X245110000Y41910000D03*
D17*
X237490000Y41910000D03*
D16*
X294640000Y5080000D03*
D17*
X287020000Y5080000D03*
D16*
X245110000Y22860000D03*
D17*
X237490000Y22860000D03*
D28*
X228600000Y69850000D03*
D29*
X228600000Y74930000D03*
D16*
X207010000Y38100000D03*
D17*
X199390000Y38100000D03*
D16*
X207010000Y57150000D03*
D17*
X199390000Y57150000D03*
D30*
X316620000Y72830000D03*
X318120000Y77030000D03*
X322120000Y77030000D03*
X325120000Y77030000D03*
D31*
X319920000Y74930000D03*
X326920000Y74930000D03*
D32*
X260522000Y1905000D03*
X260522000Y635000D03*
X260522000Y-635000D03*
X260522000Y-1905000D03*
X255098000Y-1905000D03*
X255098000Y-635000D03*
X255098000Y635000D03*
X255098000Y1905000D03*
D33*
X324485000Y39198000D03*
X323215000Y39198000D03*
X321945000Y39198000D03*
X320675000Y39198000D03*
X320675000Y44622000D03*
X321945000Y44622000D03*
X323215000Y44622000D03*
X324485000Y44622000D03*
D32*
X292272000Y23495000D03*
X292272000Y22225000D03*
X292272000Y20955000D03*
X292272000Y19685000D03*
X286848000Y19685000D03*
X286848000Y20955000D03*
X286848000Y22225000D03*
X286848000Y23495000D03*
X216072000Y17145000D03*
X216072000Y15875000D03*
X216072000Y14605000D03*
X216072000Y13335000D03*
X210648000Y13335000D03*
X210648000Y14605000D03*
X210648000Y15875000D03*
X210648000Y17145000D03*
X292272000Y61595000D03*
X292272000Y60325000D03*
X292272000Y59055000D03*
X292272000Y57785000D03*
X286848000Y57785000D03*
X286848000Y59055000D03*
X286848000Y60325000D03*
X286848000Y61595000D03*
X292272000Y42545000D03*
X292272000Y41275000D03*
X292272000Y40005000D03*
X292272000Y38735000D03*
X286848000Y38735000D03*
X286848000Y40005000D03*
X286848000Y41275000D03*
X286848000Y42545000D03*
D33*
X325120000Y2196000D03*
X323850000Y2196000D03*
X322580000Y2196000D03*
X321310000Y2196000D03*
X321310000Y7620000D03*
X322580000Y7620000D03*
X323850000Y7620000D03*
X325120000Y7620000D03*
D32*
X254172000Y59055000D03*
X254172000Y57785000D03*
X254172000Y56515000D03*
X254172000Y55245000D03*
X248748000Y55245000D03*
X248748000Y56515000D03*
X248748000Y57785000D03*
X248748000Y59055000D03*
X254172000Y40005000D03*
X254172000Y38735000D03*
X254172000Y37465000D03*
X254172000Y36195000D03*
X248748000Y36195000D03*
X248748000Y37465000D03*
X248748000Y38735000D03*
X248748000Y40005000D03*
X304800000Y3810000D03*
X304800000Y2540000D03*
X304800000Y1270000D03*
X304800000Y0D03*
X299376000Y0D03*
X299376000Y1270000D03*
X299376000Y2540000D03*
X299376000Y3810000D03*
X254172000Y20955000D03*
X254172000Y19685000D03*
X254172000Y18415000D03*
X254172000Y17145000D03*
X248748000Y17145000D03*
X248748000Y18415000D03*
X248748000Y19685000D03*
X248748000Y20955000D03*
X216072000Y36195000D03*
X216072000Y34925000D03*
X216072000Y33655000D03*
X216072000Y32385000D03*
X210648000Y32385000D03*
X210648000Y33655000D03*
X210648000Y34925000D03*
X210648000Y36195000D03*
X215900000Y55245000D03*
X215900000Y53975000D03*
X215900000Y52705000D03*
X215900000Y51435000D03*
X210476000Y51435000D03*
X210476000Y52705000D03*
X210476000Y53975000D03*
X210476000Y55245000D03*
D16*
X270510000Y3810000D03*
D17*
X262890000Y3810000D03*
D16*
X326390000Y29210000D03*
D17*
X326390000Y36830000D03*
D16*
X302260000Y22860000D03*
D17*
X294640000Y22860000D03*
D16*
X226060000Y19050000D03*
D17*
X218440000Y19050000D03*
D16*
X302260000Y60960000D03*
D17*
X294640000Y60960000D03*
D16*
X302260000Y41910000D03*
D17*
X294640000Y41910000D03*
D16*
X326390000Y-7620000D03*
D17*
X326390000Y0D03*
D16*
X264160000Y60960000D03*
D17*
X256540000Y60960000D03*
D16*
X264160000Y41910000D03*
D17*
X256540000Y41910000D03*
D16*
X315595000Y3810000D03*
D17*
X307975000Y3810000D03*
D16*
X264160000Y22860000D03*
D17*
X256540000Y22860000D03*
D16*
X226060000Y57150000D03*
D17*
X218440000Y57150000D03*
D28*
X193040000Y62865000D03*
D29*
X198120000Y62865000D03*
D28*
X200660000Y62865000D03*
D29*
X205740000Y62865000D03*
M02*
