G04 #@! TF.GenerationSoftware,KiCad,Pcbnew,(5.1.2)-1*
G04 #@! TF.CreationDate,2019-11-10T23:35:37+09:00*
G04 #@! TF.ProjectId,pcb2,70636232-2e6b-4696-9361-645f70636258,rev?*
G04 #@! TF.SameCoordinates,Original*
G04 #@! TF.FileFunction,Soldermask,Bot*
G04 #@! TF.FilePolarity,Negative*
%FSLAX46Y46*%
G04 Gerber Fmt 4.6, Leading zero omitted, Abs format (unit mm)*
G04 Created by KiCad (PCBNEW (5.1.2)-1) date 2019-11-10 23:35:37*
%MOMM*%
%LPD*%
G04 APERTURE LIST*
%ADD10C,5.000000*%
%ADD11C,1.750000*%
%ADD12C,3.987800*%
%ADD13O,1.600000X1.600000*%
%ADD14C,1.600000*%
%ADD15C,1.900000*%
%ADD16C,4.100000*%
%ADD17C,3.000000*%
%ADD18C,2.000000*%
%ADD19C,0.100000*%
%ADD20R,1.600000X1.600000*%
%ADD21C,1.524000*%
%ADD22R,1.524000X1.524000*%
%ADD23O,1.400000X1.400000*%
%ADD24C,1.400000*%
%ADD25C,1.200000*%
G04 APERTURE END LIST*
D10*
X322834000Y84074000D03*
X302768000Y-6096000D03*
X234696000Y-4064000D03*
D11*
X208280000Y10160000D03*
X198120000Y10160000D03*
D12*
X203200000Y10160000D03*
D11*
X303530000Y13970000D03*
X293370000Y13970000D03*
D12*
X298450000Y13970000D03*
D11*
X284480000Y35560000D03*
X274320000Y35560000D03*
D12*
X279400000Y35560000D03*
D13*
X226060000Y38100000D03*
D14*
X218440000Y38100000D03*
D11*
X208280000Y29210000D03*
X198120000Y29210000D03*
D12*
X203200000Y29210000D03*
D11*
X252730000Y-5080000D03*
X242570000Y-5080000D03*
D12*
X247650000Y-5080000D03*
D11*
X246380000Y13970000D03*
X236220000Y13970000D03*
D12*
X241300000Y13970000D03*
D15*
X326586115Y-29775615D03*
X335384933Y-24695615D03*
D16*
X330985524Y-27235615D03*
D17*
X335725229Y-30365024D03*
X335555081Y-27530320D03*
X331325819Y-32905024D03*
X328955967Y-31340320D03*
D18*
X328609179Y-34519665D03*
D19*
G36*
X329105108Y-33078640D02*
G01*
X330105108Y-34810690D01*
X328113250Y-35960690D01*
X327113250Y-34228640D01*
X329105108Y-33078640D01*
X329105108Y-33078640D01*
G37*
D18*
X338337702Y-25969961D03*
D19*
G36*
X338833631Y-24528936D02*
G01*
X339833631Y-26260986D01*
X337841773Y-27410986D01*
X336841773Y-25678936D01*
X338833631Y-24528936D01*
X338833631Y-24528936D01*
G37*
D11*
X317368778Y-8735597D03*
X310838056Y-16518609D03*
D12*
X314103417Y-12627103D03*
D11*
X303530000Y33020000D03*
X293370000Y33020000D03*
D12*
X298450000Y33020000D03*
D11*
X317500000Y27940000D03*
X317500000Y38100000D03*
D12*
X317500000Y33020000D03*
D11*
X227330000Y48260000D03*
X217170000Y48260000D03*
D12*
X222250000Y48260000D03*
D13*
X307975000Y77470000D03*
X274955000Y69850000D03*
X305435000Y77470000D03*
X277495000Y69850000D03*
X302895000Y77470000D03*
X280035000Y69850000D03*
X300355000Y77470000D03*
X282575000Y69850000D03*
X297815000Y77470000D03*
X285115000Y69850000D03*
X295275000Y77470000D03*
X287655000Y69850000D03*
X292735000Y77470000D03*
X290195000Y69850000D03*
X290195000Y77470000D03*
X292735000Y69850000D03*
X287655000Y77470000D03*
X295275000Y69850000D03*
X285115000Y77470000D03*
X297815000Y69850000D03*
X282575000Y77470000D03*
X300355000Y69850000D03*
X280035000Y77470000D03*
X302895000Y69850000D03*
X277495000Y77470000D03*
X305435000Y69850000D03*
X274955000Y77470000D03*
D20*
X307975000Y69850000D03*
D13*
X265430000Y77470000D03*
X232410000Y69850000D03*
X262890000Y77470000D03*
X234950000Y69850000D03*
X260350000Y77470000D03*
X237490000Y69850000D03*
X257810000Y77470000D03*
X240030000Y69850000D03*
X255270000Y77470000D03*
X242570000Y69850000D03*
X252730000Y77470000D03*
X245110000Y69850000D03*
X250190000Y77470000D03*
X247650000Y69850000D03*
X247650000Y77470000D03*
X250190000Y69850000D03*
X245110000Y77470000D03*
X252730000Y69850000D03*
X242570000Y77470000D03*
X255270000Y69850000D03*
X240030000Y77470000D03*
X257810000Y69850000D03*
X237490000Y77470000D03*
X260350000Y69850000D03*
X234950000Y77470000D03*
X262890000Y69850000D03*
X232410000Y77470000D03*
D20*
X265430000Y69850000D03*
D21*
X224790000Y81915000D03*
X222250000Y81915000D03*
X219710000Y81915000D03*
X217170000Y81915000D03*
X214630000Y81915000D03*
X212090000Y81915000D03*
X209550000Y81915000D03*
X207010000Y81915000D03*
X204470000Y81915000D03*
X201930000Y81915000D03*
X199390000Y81915000D03*
X196850000Y81915000D03*
X224790000Y66675000D03*
X222250000Y66675000D03*
X219710000Y66675000D03*
X217170000Y66675000D03*
X214630000Y66675000D03*
X212090000Y66675000D03*
X209550000Y66675000D03*
X207010000Y66675000D03*
X204470000Y66675000D03*
X201930000Y66675000D03*
X199390000Y66675000D03*
D22*
X196850000Y66675000D03*
D11*
X271780000Y-5080000D03*
X261620000Y-5080000D03*
D12*
X266700000Y-5080000D03*
D11*
X317507704Y46990000D03*
X317507704Y57150000D03*
D12*
X317507704Y52070000D03*
D11*
X284480000Y16510000D03*
X274320000Y16510000D03*
D12*
X279400000Y16510000D03*
D11*
X227330000Y10160000D03*
X217170000Y10160000D03*
D12*
X222250000Y10160000D03*
D11*
X303530000Y52070000D03*
X293370000Y52070000D03*
D12*
X298450000Y52070000D03*
D11*
X284480000Y54610000D03*
X274320000Y54610000D03*
D12*
X279400000Y54610000D03*
D11*
X265430000Y52070000D03*
X255270000Y52070000D03*
D12*
X260350000Y52070000D03*
D11*
X265430000Y33020000D03*
X255270000Y33020000D03*
D12*
X260350000Y33020000D03*
D11*
X317500000Y8890000D03*
X317500000Y19050000D03*
D12*
X317500000Y13970000D03*
D11*
X246380000Y52070000D03*
X236220000Y52070000D03*
D12*
X241300000Y52070000D03*
D11*
X246380000Y33020000D03*
X236220000Y33020000D03*
D12*
X241300000Y33020000D03*
D11*
X265430000Y13970000D03*
X255270000Y13970000D03*
D12*
X260350000Y13970000D03*
D11*
X227330000Y29210000D03*
X217170000Y29210000D03*
D12*
X222250000Y29210000D03*
D11*
X293060924Y-8735249D03*
X283055278Y-6970983D03*
D12*
X288058101Y-7853116D03*
D18*
X230990000Y81915000D03*
X237490000Y81915000D03*
D11*
X208280000Y48260000D03*
X198120000Y48260000D03*
D12*
X203200000Y48260000D03*
D23*
X270510000Y74930000D03*
D24*
X270510000Y69850000D03*
D13*
X251460000Y3810000D03*
D14*
X243840000Y3810000D03*
D13*
X326390000Y48260000D03*
D14*
X326390000Y55880000D03*
D13*
X283210000Y25400000D03*
D14*
X275590000Y25400000D03*
D13*
X207010000Y19050000D03*
D14*
X199390000Y19050000D03*
D13*
X283210000Y63500000D03*
D14*
X275590000Y63500000D03*
D13*
X283210000Y44450000D03*
D14*
X275590000Y44450000D03*
D13*
X326390000Y10160000D03*
D14*
X326390000Y17780000D03*
D13*
X245110000Y60960000D03*
D14*
X237490000Y60960000D03*
D13*
X245110000Y41910000D03*
D14*
X237490000Y41910000D03*
D13*
X294640000Y5080000D03*
D14*
X287020000Y5080000D03*
D13*
X245110000Y22860000D03*
D14*
X237490000Y22860000D03*
D23*
X228600000Y69850000D03*
D24*
X228600000Y74930000D03*
D13*
X207010000Y38100000D03*
D14*
X199390000Y38100000D03*
D13*
X207010000Y57150000D03*
D14*
X199390000Y57150000D03*
D25*
X319920000Y74930000D03*
X326920000Y74930000D03*
D13*
X270510000Y3810000D03*
D14*
X262890000Y3810000D03*
D13*
X326390000Y29210000D03*
D14*
X326390000Y36830000D03*
D13*
X302260000Y22860000D03*
D14*
X294640000Y22860000D03*
D13*
X226060000Y19050000D03*
D14*
X218440000Y19050000D03*
D13*
X302260000Y60960000D03*
D14*
X294640000Y60960000D03*
D13*
X302260000Y41910000D03*
D14*
X294640000Y41910000D03*
D13*
X326390000Y-7620000D03*
D14*
X326390000Y0D03*
D13*
X264160000Y60960000D03*
D14*
X256540000Y60960000D03*
D13*
X264160000Y41910000D03*
D14*
X256540000Y41910000D03*
D13*
X315595000Y3810000D03*
D14*
X307975000Y3810000D03*
D13*
X264160000Y22860000D03*
D14*
X256540000Y22860000D03*
D13*
X226060000Y57150000D03*
D14*
X218440000Y57150000D03*
D23*
X193040000Y62865000D03*
D24*
X198120000Y62865000D03*
D23*
X200660000Y62865000D03*
D24*
X205740000Y62865000D03*
M02*
