M48
; DRILL file {KiCad (5.1.2)-1} date 2019/11/10 23:36:00
; FORMAT={-:-/ absolute / inch / decimal}
; #@! TF.CreationDate,2019-11-10T23:36:00+09:00
; #@! TF.GenerationSoftware,Kicad,Pcbnew,(5.1.2)-1
; #@! TF.FileFunction,NonPlated,1,2,NPTH
FMAT,2
INCH
T1C0.0472
T2C0.0689
T3C0.0748
T4C0.1181
T5C0.1570
T6C0.1614
T7C0.1890
%
G90
G05
T1
X12.5953Y2.95
X12.8709Y2.95
T2
X12.5Y0.75
X12.5Y0.35
X9.3Y1.3
X9.7Y1.3
X10.05Y0.55
X10.45Y0.55
X9.3Y0.55
X9.7Y0.55
X8.55Y1.9
X8.95Y1.9
X10.8Y0.65
X11.2Y0.65
X7.8Y0.4
X8.2Y0.4
X10.8Y2.15
X11.2Y2.15
X8.55Y1.15
X8.95Y1.15
X11.55Y1.3
X11.95Y1.3
X12.5003Y2.25
X12.5003Y1.85
X7.8Y1.15
X8.2Y1.15
X8.55Y0.4
X8.95Y0.4
X10.05Y1.3
X10.45Y1.3
X11.55Y0.55
X11.95Y0.55
X7.8Y1.9
X8.2Y1.9
X9.55Y-0.2
X9.95Y-0.2
X10.05Y2.05
X10.45Y2.05
X11.1439Y-0.2744
X11.5378Y-0.3439
X9.3Y2.05
X9.7Y2.05
X12.5Y1.5
X12.5Y1.1
X10.3Y-0.2
X10.7Y-0.2
X10.8Y1.4
X11.2Y1.4
X11.55Y2.05
X11.95Y2.05
X12.2377Y-0.6503
X12.4948Y-0.3439
T3
X12.8577Y-1.1723
X13.2041Y-0.9723
T4
X12.951Y-1.2339
X13.0443Y-1.2955
X13.2108Y-1.0839
X13.2175Y-1.1955
T5
X9.5Y1.3
X10.25Y0.55
X9.5Y0.55
X8.75Y1.9
X11.0Y0.65
X8.0Y0.4
X11.0Y2.15
X8.75Y1.15
X11.75Y1.3
X12.5003Y2.05
X8.0Y1.15
X8.75Y0.4
X10.25Y1.3
X11.75Y0.55
X8.0Y1.9
X9.75Y-0.2
X10.25Y2.05
X11.3409Y-0.3092
X9.5Y2.05
X12.5Y1.3
X10.5Y-0.2
X11.0Y1.4
X11.75Y2.05
X12.3663Y-0.4971
X12.5Y0.55
T6
X13.0309Y-1.0723
T7
X9.24Y-0.16
X12.71Y3.31
X11.92Y-0.24
T0
M30
