M48
; DRILL file {KiCad (5.1.2)-1} date 2019/11/10 23:36:00
; FORMAT={-:-/ absolute / inch / decimal}
; #@! TF.CreationDate,2019-11-10T23:36:00+09:00
; #@! TF.GenerationSoftware,Kicad,Pcbnew,(5.1.2)-1
; #@! TF.FileFunction,Plated,1,2,PTH
FMAT,2
INCH
T1C0.0157
T2C0.0276
T3C0.0315
T4C0.0320
T5C0.0394
T6C0.0512
T7C0.1181
%
G90
G05
T1
X7.625Y2.3
X7.625Y1.575
X7.625Y0.8
X7.625Y0.075
X8.35Y2.25
X8.35Y1.5
X8.35Y0.75
X8.45Y2.25
X8.45Y1.5
X8.45Y0.75
X9.85Y2.4
X9.85Y1.65
X9.85Y0.9
X9.95Y2.4
X9.95Y1.65
X9.95Y0.9
X10.1Y0.15
X10.2Y0.15
X10.675Y2.275
X11.35Y2.5
X11.35Y1.75
X11.35Y1.0
X11.45Y2.5
X11.45Y1.75
X11.45Y1.0
X11.85Y0.2
X11.95Y0.2
X12.8214Y-1.4286
X12.85Y1.7
X12.85Y1.6
X12.9Y0.25
X12.9Y0.15
X10.65Y1.33
X10.65Y1.27
X11.3Y1.23
X11.3Y1.17
X11.4Y1.98
X11.4Y1.92
X12.05Y1.88
X12.05Y1.82
X12.1949Y-0.8102
X12.2409Y-0.8488
X12.6893Y-0.3766
X12.7353Y-0.4152
X12.27Y0.25
X12.33Y0.25
X12.37Y0.9
X12.43Y0.9
X9.15Y1.23
X9.15Y1.17
X9.8Y1.13
X9.8Y1.07
X9.9Y0.48
X9.9Y0.42
X10.55Y0.38
X10.55Y0.32
X9.15Y0.48
X9.15Y0.42
X9.8Y0.38
X9.8Y0.32
X8.4Y1.83
X8.4Y1.77
X9.05Y1.73
X9.05Y1.67
X10.65Y0.58
X10.65Y0.52
X11.3Y0.48
X11.3Y0.42
X7.65Y0.33
X7.65Y0.27
X8.3Y0.23
X8.3Y0.17
X10.65Y2.08
X10.65Y2.02
X11.3Y1.98
X11.3Y1.92
X8.4Y1.08
X8.4Y1.02
X9.05Y0.98
X9.05Y0.92
X11.4Y1.23
X11.4Y1.17
X12.05Y1.13
X12.05Y1.07
X12.2703Y1.75
X12.3303Y1.75
X12.3703Y2.4
X12.4303Y2.4
X7.65Y1.08
X7.65Y1.02
X8.3Y0.98
X8.3Y0.92
X8.4Y0.33
X8.4Y0.27
X9.05Y0.23
X9.05Y0.17
X9.9Y1.23
X9.9Y1.17
X10.55Y1.13
X10.55Y1.07
X11.4Y0.48
X11.4Y0.42
X12.05Y0.38
X12.05Y0.32
X7.65Y1.83
X7.65Y1.77
X8.3Y1.73
X8.3Y1.67
X9.4Y-0.27
X9.4Y-0.33
X10.05Y-0.37
X10.05Y-0.43
X9.9Y1.98
X9.9Y1.92
X10.55Y1.88
X10.55Y1.82
X10.9736Y-0.3764
X10.984Y-0.3173
X11.5964Y-0.5878
X11.6068Y-0.5287
X9.15Y1.98
X9.15Y1.92
X9.8Y1.88
X9.8Y1.82
X12.27Y1.0
X12.33Y1.0
X12.37Y1.65
X12.43Y1.65
X10.15Y-0.27
X10.15Y-0.33
X10.8Y-0.37
X10.8Y-0.43
T2
X9.0Y2.95
X9.0Y2.75
X7.9Y2.475
X8.1Y2.475
X10.65Y2.95
X10.65Y2.75
X7.6Y2.475
X7.8Y2.475
T3
X10.85Y2.5
X11.15Y2.5
X10.1Y2.4
X10.4Y2.4
X12.85Y0.0
X12.85Y-0.3
X10.35Y0.15
X10.65Y0.15
X9.6Y0.15
X9.9Y0.15
X9.15Y3.05
X9.15Y2.75
X9.25Y3.05
X9.25Y2.75
X9.35Y3.05
X9.35Y2.75
X9.45Y3.05
X9.45Y2.75
X9.55Y3.05
X9.55Y2.75
X9.65Y3.05
X9.65Y2.75
X9.75Y3.05
X9.75Y2.75
X9.85Y3.05
X9.85Y2.75
X9.95Y3.05
X9.95Y2.75
X10.05Y3.05
X10.05Y2.75
X10.15Y3.05
X10.15Y2.75
X10.25Y3.05
X10.25Y2.75
X10.35Y3.05
X10.35Y2.75
X10.45Y3.05
X10.45Y2.75
X9.35Y2.4
X9.65Y2.4
X9.35Y1.65
X9.65Y1.65
X11.6Y0.9
X11.9Y0.9
X12.125Y0.15
X12.425Y0.15
X11.6Y2.4
X11.9Y2.4
X10.825Y3.05
X10.825Y2.75
X10.925Y3.05
X10.925Y2.75
X11.025Y3.05
X11.025Y2.75
X11.125Y3.05
X11.125Y2.75
X11.225Y3.05
X11.225Y2.75
X11.325Y3.05
X11.325Y2.75
X11.425Y3.05
X11.425Y2.75
X11.525Y3.05
X11.525Y2.75
X11.625Y3.05
X11.625Y2.75
X11.725Y3.05
X11.725Y2.75
X11.825Y3.05
X11.825Y2.75
X11.925Y3.05
X11.925Y2.75
X12.025Y3.05
X12.025Y2.75
X12.125Y3.05
X12.125Y2.75
X12.85Y0.7
X12.85Y0.4
X12.85Y2.2
X12.85Y1.9
X8.6Y1.5
X8.9Y1.5
X9.35Y0.9
X9.65Y0.9
X10.1Y0.9
X10.4Y0.9
X7.85Y2.25
X8.15Y2.25
X7.85Y1.5
X8.15Y1.5
X8.6Y2.25
X8.9Y2.25
X11.6Y1.65
X11.9Y1.65
X12.85Y1.45
X12.85Y1.15
X7.85Y0.75
X8.15Y0.75
X10.85Y1.0
X11.15Y1.0
X10.85Y1.75
X11.15Y1.75
X11.3Y0.2
X11.6Y0.2
X10.1Y1.65
X10.4Y1.65
X8.6Y0.75
X8.9Y0.75
T4
X7.75Y3.225
X7.75Y2.625
X7.85Y3.225
X7.85Y2.625
X7.95Y3.225
X7.95Y2.625
X8.05Y3.225
X8.05Y2.625
X8.15Y3.225
X8.15Y2.625
X8.25Y3.225
X8.25Y2.625
X8.35Y3.225
X8.35Y2.625
X8.45Y3.225
X8.45Y2.625
X8.55Y3.225
X8.55Y2.625
X8.65Y3.225
X8.65Y2.625
X8.75Y3.225
X8.75Y2.625
X8.85Y3.225
X8.85Y2.625
T6
X9.0941Y3.225
X9.35Y3.225
T7
X10.85Y2.05
X11.1Y1.95
X8.6Y1.05
X8.85Y0.95
X11.6Y1.2
X11.85Y1.1
X12.3003Y1.95
X12.4003Y2.2
X7.85Y1.05
X8.1Y0.95
X8.6Y0.3
X8.85Y0.2
X10.1Y1.2
X10.35Y1.1
X11.6Y0.45
X11.85Y0.35
X7.85Y1.8
X8.1Y1.7
X9.6Y-0.3
X9.85Y-0.4
X10.1Y1.95
X10.35Y1.85
X11.1758Y-0.3816
X11.4046Y-0.5235
X9.35Y1.95
X9.6Y1.85
X12.3Y1.2
X12.4Y1.45
X10.35Y-0.3
X10.6Y-0.4
X10.85Y1.3
X11.1Y1.2
X11.6Y1.95
X11.85Y1.85
X12.3465Y-0.6763
X12.5838Y-0.5491
X12.3Y0.45
X12.4Y0.7
X9.35Y1.2
X9.6Y1.1
X10.1Y0.45
X10.35Y0.35
X9.35Y0.45
X9.6Y0.35
X8.6Y1.8
X8.85Y1.7
X10.85Y0.55
X11.1Y0.45
X7.85Y0.3
X8.1Y0.2
T5
G00X12.4555Y2.8673
M15
G01X12.4752Y2.8673
M16
G05
G00X12.5146Y3.0327
M15
G01X12.5343Y3.0327
M16
G05
G00X12.672Y3.0327
M15
G01X12.6917Y3.0327
M16
G05
G00X12.7902Y3.0327
M15
G01X12.8098Y3.0327
M16
G05
T0
M30
