G04 #@! TF.GenerationSoftware,KiCad,Pcbnew,(5.1.2)-1*
G04 #@! TF.CreationDate,2019-11-10T23:35:37+09:00*
G04 #@! TF.ProjectId,pcb2,70636232-2e6b-4696-9361-645f70636258,rev?*
G04 #@! TF.SameCoordinates,Original*
G04 #@! TF.FileFunction,Paste,Top*
G04 #@! TF.FilePolarity,Positive*
%FSLAX46Y46*%
G04 Gerber Fmt 4.6, Leading zero omitted, Abs format (unit mm)*
G04 Created by KiCad (PCBNEW (5.1.2)-1) date 2019-11-10 23:35:37*
%MOMM*%
%LPD*%
G04 APERTURE LIST*
%ADD10R,0.900000X0.800000*%
%ADD11R,0.800000X0.900000*%
%ADD12R,2.550000X2.500000*%
%ADD13C,2.000000*%
%ADD14C,0.100000*%
%ADD15C,2.500000*%
%ADD16R,2.500000X2.550000*%
%ADD17R,1.525000X0.650000*%
%ADD18R,0.650000X1.525000*%
G04 APERTURE END LIST*
D10*
X271850000Y1270000D03*
X274250000Y2220000D03*
X274250000Y320000D03*
D11*
X323850000Y27870000D03*
X324800000Y25470000D03*
X322900000Y25470000D03*
D10*
X303600000Y20320000D03*
X306000000Y21270000D03*
X306000000Y19370000D03*
X242500000Y1270000D03*
X240100000Y320000D03*
X240100000Y2220000D03*
D11*
X323850000Y57220000D03*
X322900000Y59620000D03*
X324800000Y59620000D03*
D10*
X274250000Y22860000D03*
X271850000Y21910000D03*
X271850000Y23810000D03*
X227400000Y16510000D03*
X229800000Y17460000D03*
X229800000Y15560000D03*
X303600000Y58420000D03*
X306000000Y59370000D03*
X306000000Y57470000D03*
X303600000Y39370000D03*
X306000000Y40320000D03*
X306000000Y38420000D03*
X198050000Y16510000D03*
X195650000Y15560000D03*
X195650000Y17460000D03*
X274250000Y60960000D03*
X271850000Y60010000D03*
X271850000Y61910000D03*
X274250000Y41910000D03*
X271850000Y40960000D03*
X271850000Y42860000D03*
D11*
X320675000Y-3245000D03*
X321625000Y-5645000D03*
X319725000Y-5645000D03*
D10*
X265570000Y58420000D03*
X267970000Y59370000D03*
X267970000Y57470000D03*
X265500000Y39370000D03*
X267900000Y40320000D03*
X267900000Y38420000D03*
D11*
X323850000Y19120000D03*
X322900000Y21520000D03*
X324800000Y21520000D03*
D10*
X236220000Y58420000D03*
X233820000Y57470000D03*
X233820000Y59370000D03*
X236150000Y39370000D03*
X233750000Y38420000D03*
X233750000Y40320000D03*
X316300000Y0D03*
X318700000Y950000D03*
X318700000Y-950000D03*
X265500000Y20320000D03*
X267900000Y21270000D03*
X267900000Y19370000D03*
X227400000Y35560000D03*
X229800000Y36510000D03*
X229800000Y34610000D03*
X227400000Y54610000D03*
X229800000Y55560000D03*
X229800000Y53660000D03*
X284156804Y3301055D03*
X281756804Y2351055D03*
X281756804Y4251055D03*
X236150000Y20320000D03*
X233750000Y19370000D03*
X233750000Y21270000D03*
X198050000Y35560000D03*
X195650000Y34610000D03*
X195650000Y36510000D03*
X198050000Y54610000D03*
X195650000Y53660000D03*
X195650000Y55560000D03*
D12*
X209015000Y5080000D03*
X196115000Y7620000D03*
X304265000Y8890000D03*
X291365000Y11430000D03*
X285215000Y30480000D03*
X272315000Y33020000D03*
X209015000Y24130000D03*
X196115000Y26670000D03*
X253465000Y-10160000D03*
X240565000Y-7620000D03*
X247115000Y8890000D03*
X234215000Y11430000D03*
D13*
X338481869Y-28819665D03*
D14*
G36*
X338977798Y-27378640D02*
G01*
X339977798Y-29110690D01*
X337985940Y-30260690D01*
X336985940Y-28528640D01*
X338977798Y-27378640D01*
X338977798Y-27378640D01*
G37*
D13*
X326213346Y-32969961D03*
D14*
G36*
X326709275Y-31528936D02*
G01*
X327709275Y-33260986D01*
X325717417Y-34410986D01*
X324717417Y-32678936D01*
X326709275Y-31528936D01*
X326709275Y-31528936D01*
G37*
D15*
X321732733Y-11437916D03*
D14*
G36*
X321870734Y-13218107D02*
G01*
X319955623Y-11611138D01*
X321594732Y-9657725D01*
X323509843Y-11264694D01*
X321870734Y-13218107D01*
X321870734Y-13218107D01*
G37*
D15*
X311495020Y-19687208D03*
D14*
G36*
X311633021Y-21467399D02*
G01*
X309717910Y-19860430D01*
X311357019Y-17907017D01*
X313272130Y-19513986D01*
X311633021Y-21467399D01*
X311633021Y-21467399D01*
G37*
D12*
X304265000Y27940000D03*
X291365000Y30480000D03*
D16*
X312420000Y27205000D03*
X314960000Y40105000D03*
D12*
X228065000Y43180000D03*
X215165000Y45720000D03*
X272515000Y-10160000D03*
X259615000Y-7620000D03*
D16*
X312427704Y46255000D03*
X314967704Y59155000D03*
D12*
X285215000Y11430000D03*
X272315000Y13970000D03*
X228065000Y5080000D03*
X215165000Y7620000D03*
X304265000Y46990000D03*
X291365000Y49530000D03*
X285215000Y49530000D03*
X272315000Y52070000D03*
X266165000Y46990000D03*
X253265000Y49530000D03*
X266165000Y27940000D03*
X253265000Y30480000D03*
D16*
X312420000Y8155000D03*
X314960000Y21055000D03*
D12*
X247115000Y46990000D03*
X234215000Y49530000D03*
X247115000Y27940000D03*
X234215000Y30480000D03*
X266165000Y8890000D03*
X253265000Y11430000D03*
X228065000Y24130000D03*
X215165000Y26670000D03*
D15*
X292902625Y-13865704D03*
D14*
G36*
X291429935Y-14875312D02*
G01*
X291864055Y-12413293D01*
X294375315Y-12856096D01*
X293941195Y-15318115D01*
X291429935Y-14875312D01*
X291429935Y-14875312D01*
G37*
D15*
X280639672Y-9124230D03*
D14*
G36*
X279166982Y-10133838D02*
G01*
X279601102Y-7671819D01*
X282112362Y-8114622D01*
X281678242Y-10576641D01*
X279166982Y-10133838D01*
X279166982Y-10133838D01*
G37*
D12*
X209015000Y43180000D03*
X196115000Y45720000D03*
D17*
X260522000Y1905000D03*
X260522000Y635000D03*
X260522000Y-635000D03*
X260522000Y-1905000D03*
X255098000Y-1905000D03*
X255098000Y-635000D03*
X255098000Y635000D03*
X255098000Y1905000D03*
D18*
X324485000Y39198000D03*
X323215000Y39198000D03*
X321945000Y39198000D03*
X320675000Y39198000D03*
X320675000Y44622000D03*
X321945000Y44622000D03*
X323215000Y44622000D03*
X324485000Y44622000D03*
D17*
X292272000Y23495000D03*
X292272000Y22225000D03*
X292272000Y20955000D03*
X292272000Y19685000D03*
X286848000Y19685000D03*
X286848000Y20955000D03*
X286848000Y22225000D03*
X286848000Y23495000D03*
X216072000Y17145000D03*
X216072000Y15875000D03*
X216072000Y14605000D03*
X216072000Y13335000D03*
X210648000Y13335000D03*
X210648000Y14605000D03*
X210648000Y15875000D03*
X210648000Y17145000D03*
X292272000Y61595000D03*
X292272000Y60325000D03*
X292272000Y59055000D03*
X292272000Y57785000D03*
X286848000Y57785000D03*
X286848000Y59055000D03*
X286848000Y60325000D03*
X286848000Y61595000D03*
X292272000Y42545000D03*
X292272000Y41275000D03*
X292272000Y40005000D03*
X292272000Y38735000D03*
X286848000Y38735000D03*
X286848000Y40005000D03*
X286848000Y41275000D03*
X286848000Y42545000D03*
D18*
X325120000Y2196000D03*
X323850000Y2196000D03*
X322580000Y2196000D03*
X321310000Y2196000D03*
X321310000Y7620000D03*
X322580000Y7620000D03*
X323850000Y7620000D03*
X325120000Y7620000D03*
D17*
X254172000Y59055000D03*
X254172000Y57785000D03*
X254172000Y56515000D03*
X254172000Y55245000D03*
X248748000Y55245000D03*
X248748000Y56515000D03*
X248748000Y57785000D03*
X248748000Y59055000D03*
X254172000Y40005000D03*
X254172000Y38735000D03*
X254172000Y37465000D03*
X254172000Y36195000D03*
X248748000Y36195000D03*
X248748000Y37465000D03*
X248748000Y38735000D03*
X248748000Y40005000D03*
X304800000Y3810000D03*
X304800000Y2540000D03*
X304800000Y1270000D03*
X304800000Y0D03*
X299376000Y0D03*
X299376000Y1270000D03*
X299376000Y2540000D03*
X299376000Y3810000D03*
X254172000Y20955000D03*
X254172000Y19685000D03*
X254172000Y18415000D03*
X254172000Y17145000D03*
X248748000Y17145000D03*
X248748000Y18415000D03*
X248748000Y19685000D03*
X248748000Y20955000D03*
X216072000Y36195000D03*
X216072000Y34925000D03*
X216072000Y33655000D03*
X216072000Y32385000D03*
X210648000Y32385000D03*
X210648000Y33655000D03*
X210648000Y34925000D03*
X210648000Y36195000D03*
X215900000Y55245000D03*
X215900000Y53975000D03*
X215900000Y52705000D03*
X215900000Y51435000D03*
X210476000Y51435000D03*
X210476000Y52705000D03*
X210476000Y53975000D03*
X210476000Y55245000D03*
M02*
