G04 #@! TF.GenerationSoftware,KiCad,Pcbnew,(5.1.2)-1*
G04 #@! TF.CreationDate,2019-11-10T23:35:37+09:00*
G04 #@! TF.ProjectId,pcb2,70636232-2e6b-4696-9361-645f70636258,rev?*
G04 #@! TF.SameCoordinates,Original*
G04 #@! TF.FileFunction,Legend,Bot*
G04 #@! TF.FilePolarity,Positive*
%FSLAX46Y46*%
G04 Gerber Fmt 4.6, Leading zero omitted, Abs format (unit mm)*
G04 Created by KiCad (PCBNEW (5.1.2)-1) date 2019-11-10 23:35:37*
%MOMM*%
%LPD*%
G04 APERTURE LIST*
%ADD10C,0.150000*%
%ADD11C,0.300000*%
%ADD12C,0.400000*%
%ADD13C,0.500000*%
%ADD14C,1.000000*%
%ADD15C,3.500000*%
%ADD16C,3.000000*%
%ADD17C,0.800000*%
%ADD18C,0.120000*%
G04 APERTURE END LIST*
D10*
X255174571Y82764285D02*
X254936476Y82097619D01*
X254698380Y82764285D01*
X254126952Y83097619D02*
X254031714Y83097619D01*
X253936476Y83050000D01*
X253888857Y83002380D01*
X253841238Y82907142D01*
X253793619Y82716666D01*
X253793619Y82478571D01*
X253841238Y82288095D01*
X253888857Y82192857D01*
X253936476Y82145238D01*
X254031714Y82097619D01*
X254126952Y82097619D01*
X254222190Y82145238D01*
X254269809Y82192857D01*
X254317428Y82288095D01*
X254365047Y82478571D01*
X254365047Y82716666D01*
X254317428Y82907142D01*
X254269809Y83002380D01*
X254222190Y83050000D01*
X254126952Y83097619D01*
X253365047Y82192857D02*
X253317428Y82145238D01*
X253365047Y82097619D01*
X253412666Y82145238D01*
X253365047Y82192857D01*
X253365047Y82097619D01*
X252841238Y82097619D02*
X252650761Y82097619D01*
X252555523Y82145238D01*
X252507904Y82192857D01*
X252412666Y82335714D01*
X252365047Y82526190D01*
X252365047Y82907142D01*
X252412666Y83002380D01*
X252460285Y83050000D01*
X252555523Y83097619D01*
X252746000Y83097619D01*
X252841238Y83050000D01*
X252888857Y83002380D01*
X252936476Y82907142D01*
X252936476Y82669047D01*
X252888857Y82573809D01*
X252841238Y82526190D01*
X252746000Y82478571D01*
X252555523Y82478571D01*
X252460285Y82526190D01*
X252412666Y82573809D01*
X252365047Y82669047D01*
D11*
X278915970Y82153238D02*
X278665970Y84153238D01*
X277904065Y84153238D01*
X277725494Y84058000D01*
X277642160Y83962761D01*
X277570732Y83772285D01*
X277606446Y83486571D01*
X277725494Y83296095D01*
X277832636Y83200857D01*
X278035017Y83105619D01*
X278796922Y83105619D01*
X276285017Y84153238D02*
X275904065Y84153238D01*
X275725494Y84058000D01*
X275558827Y83867523D01*
X275511208Y83486571D01*
X275594541Y82819904D01*
X275737398Y82438952D01*
X275951684Y82248476D01*
X276154065Y82153238D01*
X276535017Y82153238D01*
X276713589Y82248476D01*
X276880255Y82438952D01*
X276927875Y82819904D01*
X276844541Y83486571D01*
X276701684Y83867523D01*
X276487398Y84058000D01*
X276285017Y84153238D01*
X274904065Y82248476D02*
X274630255Y82153238D01*
X274154065Y82153238D01*
X273951684Y82248476D01*
X273844541Y82343714D01*
X273725494Y82534190D01*
X273701684Y82724666D01*
X273773113Y82915142D01*
X273856446Y83010380D01*
X274035017Y83105619D01*
X274404065Y83200857D01*
X274582636Y83296095D01*
X274665970Y83391333D01*
X274737398Y83581809D01*
X274713589Y83772285D01*
X274594541Y83962761D01*
X274487398Y84058000D01*
X274285017Y84153238D01*
X273808827Y84153238D01*
X273535017Y84058000D01*
X272915970Y82153238D02*
X272665970Y84153238D01*
X271999303Y84153238D02*
X270856446Y84153238D01*
X271677875Y82153238D02*
X271427875Y84153238D01*
X270439779Y82153238D02*
X270189779Y84153238D01*
X268856446Y84153238D02*
X268475494Y84153238D01*
X268296922Y84058000D01*
X268130255Y83867523D01*
X268082636Y83486571D01*
X268165970Y82819904D01*
X268308827Y82438952D01*
X268523113Y82248476D01*
X268725494Y82153238D01*
X269106446Y82153238D01*
X269285017Y82248476D01*
X269451684Y82438952D01*
X269499303Y82819904D01*
X269415970Y83486571D01*
X269273113Y83867523D01*
X269058827Y84058000D01*
X268856446Y84153238D01*
X267392160Y82153238D02*
X267142160Y84153238D01*
X266249303Y82153238D01*
X265999303Y84153238D01*
X263713589Y84153238D02*
X262380255Y84153238D01*
X263963589Y82153238D01*
X262630255Y82153238D01*
X261737398Y83200857D02*
X261070732Y83200857D01*
X260915970Y82153238D02*
X261868351Y82153238D01*
X261618351Y84153238D01*
X260665970Y84153238D01*
X258915970Y82153238D02*
X259463589Y83105619D01*
X260058827Y82153238D02*
X259808827Y84153238D01*
X259046922Y84153238D01*
X258868351Y84058000D01*
X258785017Y83962761D01*
X258713589Y83772285D01*
X258749303Y83486571D01*
X258868351Y83296095D01*
X258975494Y83200857D01*
X259177875Y83105619D01*
X259939779Y83105619D01*
X257427875Y84153238D02*
X257046922Y84153238D01*
X256868351Y84058000D01*
X256701684Y83867523D01*
X256654065Y83486571D01*
X256737398Y82819904D01*
X256880255Y82438952D01*
X257094541Y82248476D01*
X257296922Y82153238D01*
X257677875Y82153238D01*
X257856446Y82248476D01*
X258023113Y82438952D01*
X258070732Y82819904D01*
X257987398Y83486571D01*
X257844541Y83867523D01*
X257630255Y84058000D01*
X257427875Y84153238D01*
D12*
X329125012Y-32813114D02*
X328775012Y-32206896D01*
X330375012Y-34978178D02*
X331587448Y-34278178D01*
D13*
X336571869Y-25511448D02*
X334233600Y-26861448D01*
D14*
X334358467Y-27045088D02*
G75*
G02X333378344Y-29780101I-2008831J-823238D01*
G01*
D10*
X330126807Y-34948274D02*
X330301807Y-35251383D01*
X338445075Y-28355934D02*
G75*
G02X337576421Y-31051384I-1782052J-913398D01*
G01*
X333812057Y-26898678D02*
G75*
G02X332831934Y-29633691I-2008831J-823238D01*
G01*
X330301807Y-35251383D02*
X337576421Y-31051384D01*
X332831934Y-29633691D02*
X328501807Y-32133691D01*
X336645074Y-25238243D02*
X333804511Y-26878243D01*
X338445074Y-28355934D02*
X337945074Y-27489909D01*
X336645074Y-25238243D02*
X336825074Y-25550012D01*
X336651869Y-25650012D02*
X336825074Y-25550012D01*
X337745888Y-27604909D02*
X336625888Y-25665012D01*
X337945074Y-27489909D02*
X337771869Y-27589909D01*
X330300012Y-34848274D02*
X330126807Y-34948274D01*
X329192333Y-32889717D02*
X330317333Y-34838274D01*
X329001807Y-32999717D02*
X329175012Y-32899717D01*
X328501807Y-32133691D02*
X329001807Y-32999717D01*
D15*
X331133858Y-32692537D02*
X336936228Y-29342537D01*
D14*
X330608025Y-34381767D02*
X329358025Y-32216704D01*
D13*
X328911615Y-32243499D02*
X330124050Y-31543499D01*
D16*
X337146850Y-29567345D02*
X336026850Y-27627448D01*
D17*
X336375459Y-25971256D02*
X337275459Y-27530101D01*
D11*
X337908470Y-27626512D02*
X338358471Y-28405934D01*
D18*
X309305000Y76310000D02*
X309305000Y74660000D01*
X273625000Y76310000D02*
X309305000Y76310000D01*
X273625000Y71010000D02*
X273625000Y76310000D01*
X309305000Y71010000D02*
X273625000Y71010000D01*
X309305000Y72660000D02*
X309305000Y71010000D01*
X309305000Y74660000D02*
G75*
G03X309305000Y72660000I0J-1000000D01*
G01*
X266760000Y76310000D02*
X266760000Y74660000D01*
X231080000Y76310000D02*
X266760000Y76310000D01*
X231080000Y71010000D02*
X231080000Y76310000D01*
X266760000Y71010000D02*
X231080000Y71010000D01*
X266760000Y72660000D02*
X266760000Y71010000D01*
X266760000Y74660000D02*
G75*
G03X266760000Y72660000I0J-1000000D01*
G01*
D10*
X226060000Y65405000D02*
X193040000Y65405000D01*
X226060000Y83185000D02*
X226060000Y65405000D01*
X193040000Y83185000D02*
X226060000Y83185000D01*
X193040000Y65405000D02*
X193040000Y83185000D01*
X316420000Y71930000D02*
X328420000Y71930000D01*
X316420000Y77930000D02*
X316420000Y71930000D01*
X328420000Y77930000D02*
X316420000Y77930000D01*
X328420000Y71930000D02*
X328420000Y77930000D01*
X309757380Y74421904D02*
X310566904Y74421904D01*
X310662142Y74374285D01*
X310709761Y74326666D01*
X310757380Y74231428D01*
X310757380Y74040952D01*
X310709761Y73945714D01*
X310662142Y73898095D01*
X310566904Y73850476D01*
X309757380Y73850476D01*
X309757380Y73469523D02*
X309757380Y72850476D01*
X310138333Y73183809D01*
X310138333Y73040952D01*
X310185952Y72945714D01*
X310233571Y72898095D01*
X310328809Y72850476D01*
X310566904Y72850476D01*
X310662142Y72898095D01*
X310709761Y72945714D01*
X310757380Y73040952D01*
X310757380Y73326666D01*
X310709761Y73421904D01*
X310662142Y73469523D01*
X267212380Y74421904D02*
X268021904Y74421904D01*
X268117142Y74374285D01*
X268164761Y74326666D01*
X268212380Y74231428D01*
X268212380Y74040952D01*
X268164761Y73945714D01*
X268117142Y73898095D01*
X268021904Y73850476D01*
X267212380Y73850476D01*
X267307619Y73421904D02*
X267260000Y73374285D01*
X267212380Y73279047D01*
X267212380Y73040952D01*
X267260000Y72945714D01*
X267307619Y72898095D01*
X267402857Y72850476D01*
X267498095Y72850476D01*
X267640952Y72898095D01*
X268212380Y73469523D01*
X268212380Y72850476D01*
X195721219Y66014695D02*
X195721219Y66586123D01*
X194721219Y66300409D02*
X195721219Y66300409D01*
X195721219Y66824219D02*
X194721219Y67490885D01*
X195721219Y67490885D02*
X194721219Y66824219D01*
X321422380Y75941904D02*
X321422380Y75370476D01*
X322422380Y75656190D02*
X321422380Y75656190D01*
X322422380Y74465714D02*
X321946190Y74799047D01*
X322422380Y75037142D02*
X321422380Y75037142D01*
X321422380Y74656190D01*
X321470000Y74560952D01*
X321517619Y74513333D01*
X321612857Y74465714D01*
X321755714Y74465714D01*
X321850952Y74513333D01*
X321898571Y74560952D01*
X321946190Y74656190D01*
X321946190Y75037142D01*
X322422380Y73465714D02*
X321946190Y73799047D01*
X322422380Y74037142D02*
X321422380Y74037142D01*
X321422380Y73656190D01*
X321470000Y73560952D01*
X321517619Y73513333D01*
X321612857Y73465714D01*
X321755714Y73465714D01*
X321850952Y73513333D01*
X321898571Y73560952D01*
X321946190Y73656190D01*
X321946190Y74037142D01*
X322374761Y73084761D02*
X322422380Y72941904D01*
X322422380Y72703809D01*
X322374761Y72608571D01*
X322327142Y72560952D01*
X322231904Y72513333D01*
X322136666Y72513333D01*
X322041428Y72560952D01*
X321993809Y72608571D01*
X321946190Y72703809D01*
X321898571Y72894285D01*
X321850952Y72989523D01*
X321803333Y73037142D01*
X321708095Y73084761D01*
X321612857Y73084761D01*
X321517619Y73037142D01*
X321470000Y72989523D01*
X321422380Y72894285D01*
X321422380Y72656190D01*
X321470000Y72513333D01*
M02*
